<?xml version="1.0" standalone="no"?>
<!DOCTYPE svg PUBLIC "-//W3C//DTD SVG 20010904//EN"
 "http://www.w3.org/TR/2001/REC-SVG-20010904/DTD/svg10.dtd">
<svg version="1.0" xmlns="http://www.w3.org/2000/svg"
 width="360.000000pt" height="360.000000pt" viewBox="0 0 360.000000 360.000000"
 preserveAspectRatio="xMidYMid meet">
<metadata>
Created by potrace 1.14, written by Peter Selinger 2001-2017
</metadata>
<g transform="translate(0.000000,360.000000) scale(0.100000,-0.100000)"
fill="#000000" stroke="none">
<path d="M557 2643 c-4 -3 -7 -399 -7 -880 l0 -873 120 0 120 0 0 304 0 304
146 138 c124 115 149 135 158 122 6 -9 148 -207 316 -442 l305 -426 152 0 153
0 -123 167 c-68 93 -230 314 -362 493 -131 179 -249 339 -262 356 l-24 32 370
353 369 354 -155 3 -154 3 -435 -428 c-240 -236 -440 -429 -445 -431 -5 -2 -9
166 -9 427 l0 431 -113 0 c-63 0 -117 -3 -120 -7z"/>
<path d="M2808 1963 c-4 -749 -3 -734 -62 -823 -72 -110 -314 -122 -415 -21
-51 51 -71 114 -78 244 l-6 107 -118 0 -119 0 0 -97 c1 -346 175 -523 515
-523 268 0 434 106 499 319 19 63 20 98 24 774 l3 707 -120 0 -120 0 -3 -687z"/>
</g>
</svg>
